<svg width="900" height="560" viewBox="0 0 900 560" fill="none" xmlns="http://www.w3.org/2000/svg">
  <defs>
    <linearGradient id="bg" x1="60" y1="40" x2="840" y2="520" gradientUnits="userSpaceOnUse">
      <stop stop-color="#111827" stop-opacity="0.9" />
      <stop offset="1" stop-color="#0B1220" stop-opacity="0.95" />
    </linearGradient>
    <linearGradient id="accent" x1="0" y1="0" x2="1" y2="1">
      <stop stop-color="#22D3EE" stop-opacity="0.7" />
      <stop offset="1" stop-color="#6366F1" stop-opacity="0.7" />
    </linearGradient>
    <filter id="cardShadow" x="-20" y="-20" width="200%" height="200%" color-interpolation-filters="sRGB">
      <feDropShadow dx="0" dy="16" stdDeviation="24" flood-color="#0F172A" flood-opacity="0.35" />
    </filter>
  </defs>
  <rect x="28" y="24" width="844" height="512" rx="42" fill="url(#bg)" />
  <rect x="64" y="68" width="772" height="424" rx="28" fill="#0F172A" stroke="#1F2937" filter="url(#cardShadow)" />
  <rect x="96" y="104" width="708" height="56" rx="14" fill="#111827" stroke="#1F2937" />
  <rect x="116" y="122" width="120" height="20" rx="8" fill="#22D3EE" opacity="0.8" />
  <rect x="256" y="122" width="96" height="20" rx="8" fill="#6366F1" opacity="0.7" />
  <rect x="372" y="122" width="78" height="20" rx="8" fill="#94A3B8" opacity="0.6" />

  <rect x="96" y="188" width="360" height="260" rx="18" fill="#0B1220" stroke="#1F2937" />
  <rect x="480" y="188" width="324" height="260" rx="18" fill="#0B1220" stroke="#1F2937" />

  <rect x="124" y="214" width="304" height="18" rx="6" fill="#1F2937" />
  <rect x="124" y="244" width="224" height="12" rx="6" fill="#2DD4BF" />
  <rect x="124" y="272" width="248" height="12" rx="6" fill="#6366F1" />
  <rect x="124" y="300" width="190" height="12" rx="6" fill="#22D3EE" />

  <g opacity="0.9">
    <rect x="144" y="338" width="12" height="88" rx="3" fill="#22D3EE" />
    <rect x="172" y="314" width="12" height="112" rx="3" fill="#6366F1" />
    <rect x="200" y="330" width="12" height="96" rx="3" fill="#A855F7" />
    <rect x="228" y="302" width="12" height="124" rx="3" fill="#22D3EE" />
    <rect x="256" y="320" width="12" height="106" rx="3" fill="#6366F1" />
    <rect x="284" y="288" width="12" height="138" rx="3" fill="#14B8A6" />
    <rect x="312" y="326" width="12" height="100" rx="3" fill="#22D3EE" />
  </g>

  <path d="M520 392C556 354 588 332 624 332C660 332 684 352 720 376C744 392 764 402 804 402" stroke="url(#accent)" stroke-width="10" stroke-linecap="round" fill="none" />
  <path d="M520 322C552 300 584 288 624 288C668 288 700 304 744 324C768 334 792 340 812 340" stroke="#6366F1" stroke-width="8" stroke-linecap="round" opacity="0.8" fill="none" />
  <circle cx="624" cy="332" r="12" fill="#22D3EE" />
  <circle cx="720" cy="376" r="12" fill="#6366F1" />
  <circle cx="804" cy="402" r="10" fill="#22D3EE" />

  <rect x="520" y="214" width="208" height="14" rx="6" fill="#1F2937" />
  <rect x="520" y="238" width="168" height="10" rx="5" fill="#22D3EE" opacity="0.7" />
  <rect x="520" y="258" width="140" height="10" rx="5" fill="#6366F1" opacity="0.7" />
  <rect x="520" y="278" width="118" height="10" rx="5" fill="#94A3B8" opacity="0.6" />
</svg>
