<svg width="900" height="560" viewBox="0 0 900 560" fill="none" xmlns="http://www.w3.org/2000/svg">
  <defs>
    <linearGradient id="panel" x1="80" y1="60" x2="820" y2="520" gradientUnits="userSpaceOnUse">
      <stop stop-color="#F8FAFC" stop-opacity="0.9" />
      <stop offset="1" stop-color="#EEF2FF" stop-opacity="0.9" />
    </linearGradient>
    <linearGradient id="accent2" x1="0" y1="0" x2="1" y2="1">
      <stop stop-color="#7C3AED" stop-opacity="0.65" />
      <stop offset="1" stop-color="#22D3EE" stop-opacity="0.65" />
    </linearGradient>
    <filter id="soft" x="-20" y="-20" width="200%" height="200%" color-interpolation-filters="sRGB">
      <feDropShadow dx="0" dy="16" stdDeviation="22" flood-color="#0F172A" flood-opacity="0.18" />
    </filter>
  </defs>
  <rect x="40" y="32" width="820" height="496" rx="36" fill="white" stroke="#E5E7EB" />
  <rect x="72" y="72" width="756" height="416" rx="28" fill="url(#panel)" filter="url(#soft)" />
  <rect x="108" y="108" width="688" height="64" rx="16" fill="#fff" stroke="#E5E7EB" />
  <circle cx="140" cy="140" r="10" fill="#F87171" />
  <circle cx="170" cy="140" r="10" fill="#FBBF24" />
  <circle cx="200" cy="140" r="10" fill="#34D399" />

  <rect x="128" y="196" width="240" height="38" rx="12" fill="#6366F1" opacity="0.1" />
  <rect x="128" y="250" width="240" height="38" rx="12" fill="#22D3EE" opacity="0.08" />
  <rect x="128" y="304" width="240" height="38" rx="12" fill="#A855F7" opacity="0.08" />
  <rect x="128" y="358" width="240" height="38" rx="12" fill="#7C3AED" opacity="0.06" />

  <rect x="408" y="200" width="348" height="240" rx="18" fill="#0F172A" />
  <rect x="432" y="222" width="120" height="12" rx="6" fill="#7C3AED" />
  <rect x="432" y="244" width="160" height="12" rx="6" fill="#22D3EE" />
  <rect x="432" y="266" width="96" height="12" rx="6" fill="#A855F7" />
  <rect x="432" y="296" width="288" height="148" rx="14" fill="#0B1220" stroke="#111827" />
  <path d="M448 332h52l18-28l18 52l16-32l16 22l18-30l20 46h56" stroke="url(#accent2)" stroke-width="6" stroke-linecap="round" stroke-linejoin="round" fill="none" />
  <circle cx="560" cy="328" r="12" fill="#22D3EE" />
  <circle cx="622" cy="350" r="12" fill="#7C3AED" />
  <circle cx="684" cy="354" r="10" fill="#22D3EE" />
</svg>
